# xmcd CD database file
#
# Track frame offsets:
#	150
#	54094
#	90807
#	115394
#	169375
#	192367
#	216721
#
# Disc length: 3338 seconds
#
# Revision: 0
# Processed by: cddbd v1.5.2PL0 Copyright (c) Steve Scherf et al.
# Submitted via: CDex 1.70beta2
#
DISCID=5e0d0807
DTITLE=DJ Tiesto - Just Be CD1
DYEAR=2004
DGENRE=New Age
TTITLE0=Forever Today
TTITLE1=Love Comes Again
TTITLE2=Traffic
TTITLE3=Forever Today
TTITLE4=Love Comes Again (3FM Versie)
TTITLE5=Traffic
TTITLE6=Sweet Misery
EXTD=YEAR: 2004
EXTT0=
EXTT1=
EXTT2=
EXTT3=
EXTT4=
EXTT5=
EXTT6=
PLAYORDER=
